<?xml version="1.0" standalone="no"?>
<!DOCTYPE svg PUBLIC "-//W3C//DTD SVG 20010904//EN"
 "http://www.w3.org/TR/2001/REC-SVG-20010904/DTD/svg10.dtd">
<svg version="1.0" xmlns="http://www.w3.org/2000/svg"
 width="1492.000000pt" height="1214.000000pt" viewBox="0 0 1492.000000 1214.000000"
 preserveAspectRatio="xMidYMid meet">

<g transform="translate(0.000000,1214.000000) scale(0.100000,-0.100000)"
fill="#FFF" stroke="none">
<path d="M1975 9163 c30 -87 543 -1555 1139 -3263 l1084 -3105 558 -3 c307 -1
561 1 565 5 7 7 2289 6507 2289 6519 0 9 -1099 4 -1105 -6 -5 -8 -1028 -3036
-1345 -3980 -141 -420 -286 -953 -361 -1329 l-33 -165 -32 155 c-39 186 -117
495 -190 752 -30 104 -385 1177 -790 2383 l-737 2194 -548 0 -549 0 55 -157z"/>
<path d="M8140 8350 c0 -949 0 -972 19 -967 10 2 196 69 412 148 510 185 526
195 673 420 49 77 96 136 138 173 35 31 66 56 70 56 4 0 -7 29 -23 64 -98 209
8 390 226 390 119 0 202 -58 274 -193 l31 -58 172 -27 c495 -77 615 -108 801
-211 125 -69 158 -97 180 -150 11 -27 21 -51 22 -53 1 -1 132 -21 291 -43 159
-23 295 -45 302 -51 16 -14 15 -72 -2 -129 -8 -25 -21 -92 -30 -148 -21 -130
-39 -173 -88 -216 -23 -19 -134 -82 -248 -140 -333 -169 -418 -227 -584 -391
-101 -100 -155 -178 -221 -316 -86 -182 -156 -279 -371 -518 -136 -152 -199
-231 -293 -370 -180 -266 -302 -534 -375 -825 -67 -265 -80 -435 -74 -927 l6
-388 -417 0 -417 0 -12 183 c-19 300 -59 519 -138 756 -70 212 -180 419 -294
551 l-29 35 -1 -1107 0 -1108 1268 0 c1298 0 1465 4 1724 40 665 93 1198 376
1502 799 70 97 115 178 182 323 73 161 110 269 141 417 24 112 27 148 27 326
1 260 -27 408 -116 630 -73 180 -173 347 -274 460 -211 234 -397 367 -677 483
l-28 12 88 59 c181 122 322 263 444 446 265 396 336 911 188 1368 -41 129
-146 335 -226 446 -161 223 -397 414 -645 522 -112 49 -221 82 -393 118 -337
70 -383 72 -1877 78 l-1328 5 0 -972z m2400 -2985 c-20 -288 -32 -1079 -20
-1380 6 -154 15 -311 20 -350 5 -38 10 -87 10 -107 l0 -38 -336 0 -335 0 4
448 c4 438 4 449 30 564 88 398 301 798 571 1076 l61 63 3 -63 c2 -35 -2 -130
-8 -213z"/>
<path d="M9527 8548 c-75 -101 -77 -199 -5 -264 25 -23 88 -58 88 -49 0 3 -12
29 -27 58 -26 48 -28 61 -28 170 0 64 -1 117 -2 117 -1 0 -13 -15 -26 -32z"/>
<path d="M10610 8051 c0 -14 90 -88 128 -107 18 -8 40 -13 48 -10 16 6 74 94
74 113 0 10 -29 13 -125 13 -70 0 -125 -4 -125 -9z"/>
</g>
</svg>
